<?xml version="1.0" encoding="utf-8"?>
<svg xmlns="http://www.w3.org/2000/svg"
	xmlns:xlink="http://www.w3.org/1999/xlink"
	width="150px" height="35px" viewBox="0 0 150 35">
<style type="text/css"><![CDATA[
.style0 {
  font-size: 13px;
  font-family: "OpenSans-Bold";
  fill: rgb(255,255,255);
}
]]></style>
<clipPath id="clip0"><rect x="0" y="32" width="149" height="3"/></clipPath><clipPath id="clip1"><circle cx="9.00" cy="9.00" r="9.00"/></clipPath><defs>
<symbol id="symbol0"><circle cx="141.00" cy="9.00" r="9.00"/></symbol></defs>
<g><rect x="0" y="32" width="149" height="3" fill="rgb(54,61,83)"/><g><rect x="0" y="32" width="149" height="3" fill="rgb(54,61,83)"/><rect x="-75" y="32" width="149" height="3" fill="rgb(0,181,249)" clip-path="url(#clip0)"/></g><text transform="translate(0.00,15.00)" class="style0"><tspan x="0.00 6.67 13.34 16.09 24.49 31.54 34.29 38.75 41.51 48.18 54.85 61.51 64.27 72.67" fill="rgb(255,255,255)">50 GB / 100 GB</tspan></text><g><g><use xlink:href="#symbol0" x="132" y="0" width="18" height="18" fill="rgb(67,75,99)"/><use xlink:href="#symbol0" x="132" y="0" width="18" height="18" fill="none" stroke="rgb(111,121,149)" stroke-width="2.00px" clip-path="url(#clip1)"/></g><path fillRule="evenodd" d="M 145.42 8.81C 145.42 8.81 141.81 8.81 141.81 8.81 141.81 8.81 141.81 12.42 141.81 12.42 141.81 12.42 141.19 12.42 141.19 12.42 141.19 12.42 141.19 8.81 141.19 8.81 141.19 8.81 137.58 8.81 137.58 8.81 137.58 8.81 137.58 8.19 137.58 8.19 137.58 8.19 141.19 8.19 141.19 8.19 141.19 8.19 141.19 4.58 141.19 4.58 141.19 4.58 141.81 4.58 141.81 4.58 141.81 4.58 141.81 8.19 141.81 8.19 141.81 8.19 145.42 8.19 145.42 8.19 145.42 8.19 145.42 8.81 145.42 8.81Z" fill="rgb(0,181,249)"/></g></g></svg>