<?xml version="1.0" encoding="utf-8"?>
<svg xmlns="http://www.w3.org/2000/svg"
	xmlns:xlink="http://www.w3.org/1999/xlink"
	width="173px" height="26px" viewBox="0 0 173 26">
<style type="text/css"><![CDATA[
.style0 {
  font-size: 14px;
  font-family: "OpenSans";
  fill: rgb(0,181,249);
}
]]></style>
<clipPath id="clip0"><path fillRule="evenodd" d="M-0.97 21C-0.97 21-0.97-1-0.97-1-0.97-1 20.03-1 20.03-1 20.03-1 20.03 21 20.03 21 20.03 21-0.97 21-0.97 21ZM 18.03 3C 18.03 1.9 17.14 1 16.03 1 16.03 1 3.03 1 3.03 1 1.93 1 1.03 1.9 1.03 3 1.03 3 1.03 17 1.03 17 1.03 18.1 1.93 19 3.03 19 3.03 19 16.03 19 16.03 19 17.14 19 18.03 18.1 18.03 17 18.03 17 18.03 3 18.03 3Z"/></clipPath><clipPath id="clip1"><path fillRule="evenodd" d="M-3.44 21.97C-3.44 21.97-3.44-4-3.44-4-3.44-4 20.44-4 20.44-4 20.44-4 20.44 21.97 20.44 21.97 20.44 21.97-3.44 21.97-3.44 21.97ZM 9 4.04C 9 4.04 9 4 9 4 9 4 8 4 8 4 8 4 8 4.04 8 4.04 8 4.04 4.57 7.47 4.57 7.47 4.57 7.47 5.28 8.18 5.28 8.18 5.28 8.18 8 5.46 8 5.46 8 5.46 8 13.97 8 13.97 8 13.97 9 13.97 9 13.97 9 13.97 9 5.46 9 5.46 9 5.46 11.72 8.18 11.72 8.18 11.72 8.18 12.43 7.47 12.43 7.47 12.43 7.47 9 4.04 9 4.04Z"/></clipPath><clipPath id="clip2"><path fillRule="evenodd" d="M-1 20C-1 20-1-1-1-1-1-1 20-1 20-1 20-1 20 20 20 20 20 20-1 20-1 20ZM 18 4C 18 2.34 16.66 1 15 1 15 1 4 1 4 1 2.34 1 1 2.34 1 4 1 4 1 15 1 15 1 16.66 2.34 18 4 18 4 18 15 18 15 18 16.66 18 18 16.66 18 15 18 15 18 4 18 4Z"/></clipPath><defs>
<symbol id="symbol0"><path fillRule="evenodd" d="M 18.43 15.47C 18.43 15.47 17.72 16.18 17.72 16.18 17.72 16.18 15 13.46 15 13.46 15 13.46 15 21.97 15 21.97 15 21.97 14 21.97 14 21.97 14 21.97 14 13.46 14 13.46 14 13.46 11.28 16.18 11.28 16.18 11.28 16.18 10.57 15.47 10.57 15.47 10.57 15.47 14 12.04 14 12.04 14 12.04 14 12 14 12 14 12 15 12 15 12 15 12 15 12.04 15 12.04 15 12.04 18.43 15.47 18.43 15.47Z"/></symbol></defs>
<g><rect x="1" y="1" width="17" height="18" rx="2" fill="none" stroke="rgb(255,255,255)" stroke-width="1.00px" clip-path="url(#clip0)"/><g><use xlink:href="#symbol0" x="6" y="8" width="17" height="18" fill="rgb(0,180,248)"/><use xlink:href="#symbol0" x="6" y="8" width="17" height="18" fill="none" stroke="rgb(67,75,99)" stroke-width="4.00px" clip-path="url(#clip1)"/></g><g><rect x="155" y="5" width="17" height="17" rx="3" fill="none" stroke="rgb(104,116,152)" stroke-width="1.00px" clip-path="url(#clip2)"/><text transform="translate(160.00,19.00)" class="style0"><tspan x="0.00" fill="rgb(0,181,248)">3</tspan></text></g></g></svg>