<?xml version="1.0" encoding="utf-8"?>
<svg xmlns="http://www.w3.org/2000/svg"
	xmlns:xlink="http://www.w3.org/1999/xlink"
	width="28px" height="28px" viewBox="0 0 28 28">
<clipPath id="clip0"><path fillRule="evenodd" d="M-1 29C-1 29-1-1-1-1-1-1 29-1 29-1 29-1 29 29 29 29 29 29-1 29-1 29ZM 14 1C 6.82 1 1 6.82 1 14 1 21.18 6.82 27 14 27 21.18 27 27 21.18 27 14 27 6.82 21.18 1 14 1Z"/></clipPath><g><circle cx="14.00" cy="14.00" r="13.00" fill="none" stroke="rgb(0,181,249)" stroke-width="1.00px" clip-path="url(#clip0)"/><path fillRule="evenodd" d="M 22.95 9.06C 22.95 9.06 11.29 20.73 11.29 20.73 11.29 20.73 11.28 20.72 11.28 20.72 11.28 20.72 11.15 20.85 11.15 20.85 11.15 20.85 4.15 13.85 4.15 13.85 4.15 13.85 4.85 13.15 4.85 13.15 4.85 13.15 11.15 19.45 11.15 19.45 11.15 19.45 22.25 8.35 22.25 8.35 22.25 8.35 22.95 9.06 22.95 9.06Z" fill="rgb(0,181,249)" opacity="0.80"/></g></svg>