<?xml version="1.0" encoding="utf-8"?>
<svg xmlns="http://www.w3.org/2000/svg"
	xmlns:xlink="http://www.w3.org/1999/xlink"
	width="166px" height="35px" viewBox="0 0 166 35">
<style type="text/css"><![CDATA[
.style0 {
  font-size: 14px;
  font-family: "OpenSans-Light";
  fill: rgb(255,255,255);
}
]]></style>
<clipPath id="clip0"><path fillRule="evenodd" d="M-1 36C-1 36-1-1-1-1-1-1 167-1 167-1 167-1 167 36 167 36 167 36-1 36-1 36ZM 165 4C 165 2.34 163.66 1 162 1 162 1 4 1 4 1 2.34 1 1 2.34 1 4 1 4 1 31 1 31 1 32.66 2.34 34 4 34 4 34 162 34 162 34 163.66 34 165 32.66 165 31 165 31 165 4 165 4Z"/></clipPath><g><rect x="1" y="1" width="164" height="33" rx="3" fill="none" stroke="rgb(0,180,248)" stroke-width="1.00px" clip-path="url(#clip0)"/><text transform="translate(90.00,22.00)" class="style0"><tspan x="-50.39 -41.33 -33.36 -25.62 -21.11 -14.36 -6.47 0.55 3.51 10.26 16.45 22.64 30.32 38.04 45.75" fill="rgb(255,255,255)">Upgrade account</tspan></text><path fillRule="evenodd" d="M 21.43 15.47C 21.43 15.47 20.72 16.18 20.72 16.18 20.72 16.18 18 13.46 18 13.46 18 13.46 18 21.97 18 21.97 18 21.97 17 21.97 17 21.97 17 21.97 17 13.46 17 13.46 17 13.46 14.28 16.18 14.28 16.18 14.28 16.18 13.57 15.47 13.57 15.47 13.57 15.47 17 12.04 17 12.04 17 12.04 17 12 17 12 17 12 18 12 18 12 18 12 18 12.04 18 12.04 18 12.04 21.43 15.47 21.43 15.47Z" fill="rgb(0,180,248)"/></g></svg>